<svg width="1200" height="960" viewBox="0 0 1200 960" fill="none" xmlns="http://www.w3.org/2000/svg">
  <rect width="1200" height="960" fill="#FAF9F9"/>
  <rect x="60" y="60" width="1080" height="68" fill="#E3E2E2"/>
  <text x="100" y="104" fill="#000000" font-size="22" font-family="Arial, sans-serif" letter-spacing="3">ARCHITECTURE PANEL / SAMPLE</text>
  <rect x="60" y="176" width="480" height="724" fill="#FFFFFF"/>
  <rect x="580" y="176" width="560" height="724" fill="#F5F3F3"/>
  <text x="100" y="294" fill="#000000" font-size="76" font-weight="700" font-family="Arial, sans-serif">Architecture</text>
  <text x="100" y="370" fill="#000000" font-size="76" font-weight="700" font-family="Arial, sans-serif">narrative</text>
  <rect x="100" y="440" width="340" height="18" fill="#E3E2E2"/>
  <rect x="100" y="478" width="286" height="18" fill="#E3E2E2"/>
  <rect x="100" y="516" width="314" height="18" fill="#E3E2E2"/>
  <rect x="620" y="232" width="200" height="88" fill="#FFFFFF"/>
  <rect x="620" y="372" width="200" height="88" fill="#FFFFFF"/>
  <rect x="620" y="512" width="200" height="88" fill="#FFFFFF"/>
  <rect x="900" y="302" width="200" height="88" fill="#000000"/>
  <rect x="900" y="442" width="200" height="88" fill="#FFFFFF"/>
  <path d="M820 276H900" stroke="#000000" stroke-width="4"/>
  <path d="M820 416H900" stroke="#000000" stroke-width="4"/>
  <path d="M820 556H900" stroke="#000000" stroke-width="4"/>
  <text x="620" y="834" fill="#5F5859" font-size="22" font-family="Arial, sans-serif" letter-spacing="2">LABELS / PATHWAYS / EVIDENCE MODULES</text>
</svg>
