<svg width="1440" height="960" viewBox="0 0 1440 960" fill="none" xmlns="http://www.w3.org/2000/svg">
  <rect width="1440" height="960" fill="#FCF6F2"/>
  <rect x="56" y="56" width="1328" height="72" fill="#F1E5DF"/>
  <text x="96" y="102" fill="#1A1717" font-size="22" font-family="Arial, sans-serif" letter-spacing="4">AIRBNB BOOKING FLOW / SAMPLE BOARD</text>
  <rect x="56" y="176" width="1328" height="232" fill="#FFFFFF"/>
  <rect x="96" y="220" width="520" height="144" rx="28" fill="#FFF8F3"/>
  <rect x="656" y="220" width="312" height="144" rx="28" fill="#FFE9E0"/>
  <rect x="996" y="220" width="348" height="144" rx="28" fill="#F6ECE6"/>
  <rect x="56" y="448" width="420" height="456" fill="#FFFFFF"/>
  <rect x="508" y="448" width="420" height="456" fill="#FFFFFF"/>
  <rect x="960" y="448" width="424" height="456" fill="#FFFFFF"/>
  <text x="112" y="286" fill="#1A1717" font-size="86" font-weight="700" font-family="Arial, sans-serif">Stay somewhere</text>
  <text x="112" y="366" fill="#1A1717" font-size="86" font-weight="700" font-family="Arial, sans-serif">warm and human</text>
  <rect x="112" y="500" width="308" height="208" rx="28" fill="#F8EDE6"/>
  <rect x="548" y="500" width="340" height="152" rx="28" fill="#FFF3EC"/>
  <rect x="548" y="676" width="340" height="188" rx="28" fill="#F8EDE6"/>
  <rect x="1000" y="500" width="344" height="364" rx="28" fill="#FFF3EC"/>
  <text x="112" y="874" fill="#6C6263" font-size="22" font-family="Arial, sans-serif" letter-spacing="2">SEARCH-FIRST / TRUST CUES / WARM MODULE RHYTHM</text>
  <text x="1016" y="560" fill="#1A1717" font-size="30" font-weight="700" font-family="Arial, sans-serif">Booking panel</text>
  <rect x="1016" y="612" width="280" height="18" fill="#E9D8D0"/>
  <rect x="1016" y="648" width="250" height="18" fill="#E9D8D0"/>
  <rect x="1016" y="702" width="220" height="56" rx="20" fill="#FF5A5F"/>
  <text x="1060" y="738" fill="#FFFFFF" font-size="24" font-family="Arial, sans-serif" letter-spacing="2">RESERVE</text>
</svg>
