<svg width="1440" height="960" viewBox="0 0 1440 960" fill="none" xmlns="http://www.w3.org/2000/svg">
  <rect width="1440" height="960" fill="#F6F7F9"/>
  <rect x="56" y="56" width="1328" height="72" fill="#E5E8EE"/>
  <text x="96" y="102" fill="#111111" font-size="22" font-family="Arial, sans-serif" letter-spacing="4">FIGMA WORKSPACE / SAMPLE BOARD</text>
  <rect x="56" y="176" width="96" height="728" fill="#FFFFFF"/>
  <rect x="176" y="176" width="212" height="728" fill="#FFFFFF"/>
  <rect x="412" y="176" width="652" height="728" fill="#FFFFFF"/>
  <rect x="1088" y="176" width="296" height="728" fill="#FFFFFF"/>
  <rect x="196" y="216" width="172" height="18" fill="#ECEFF5"/>
  <rect x="196" y="252" width="142" height="18" fill="#ECEFF5"/>
  <rect x="76" y="208" width="56" height="56" rx="12" fill="#F24E1E"/>
  <rect x="76" y="280" width="56" height="56" rx="12" fill="#A259FF"/>
  <rect x="76" y="352" width="56" height="56" rx="12" fill="#0ACF83"/>
  <rect x="432" y="196" width="612" height="688" fill="#F7F9FC"/>
  <rect x="468" y="236" width="540" height="216" fill="#FFFFFF"/>
  <rect x="516" y="292" width="248" height="96" fill="#E8EEFF"/>
  <rect x="792" y="292" width="168" height="96" fill="#FFF0E8"/>
  <rect x="468" y="484" width="256" height="180" fill="#FFFFFF"/>
  <rect x="752" y="484" width="256" height="180" fill="#FFFFFF"/>
  <rect x="468" y="692" width="540" height="136" fill="#FFFFFF"/>
  <circle cx="602" cy="602" r="18" fill="#1ABCFE"/>
  <circle cx="644" cy="602" r="18" fill="#A259FF"/>
  <circle cx="686" cy="602" r="18" fill="#0ACF83"/>
  <text x="468" y="880" fill="#5F5859" font-size="22" font-family="Arial, sans-serif" letter-spacing="2">PANES / CANVAS / LIVE COLLABORATION CUES</text>
  <text x="1120" y="238" fill="#111111" font-size="20" font-family="Arial, sans-serif" letter-spacing="3">INSPECT</text>
  <rect x="1120" y="278" width="224" height="18" fill="#ECEFF5"/>
  <rect x="1120" y="314" width="196" height="18" fill="#ECEFF5"/>
  <rect x="1120" y="374" width="224" height="160" fill="#F7F9FC"/>
  <rect x="1120" y="558" width="224" height="120" fill="#F7F9FC"/>
</svg>
